<mxfile host="drawio-plugin" modified="2024-02-24T12:47:59.882Z" agent="5.0 (X11; Linux x86_64) AppleWebKit/537.36 (KHTML, like Gecko) Chrome/111.0.0.0 Safari/537.36" etag="QyBd6lS0MuSsA8hdRBe4" version="20.5.3" type="embed"><diagram name="Page-1" id="yRPZGmEM-baA_GnOwTK-"><mxGraphModel dx="1424" dy="383" grid="0" gridSize="10" guides="1" tooltips="1" connect="1" arrows="1" fold="1" page="1" pageScale="1" pageWidth="850" pageHeight="1100" math="0" shadow="0"><root><mxCell id="0"/><mxCell id="1" parent="0"/><mxCell id="Netjsd_cc94yPRu-f9Rg-1" value="Keeper" style="rounded=0;whiteSpace=wrap;html=1;" parent="1" vertex="1"><mxGeometry x="245" y="299" width="120" height="60" as="geometry"/></mxCell><mxCell id="Netjsd_cc94yPRu-f9Rg-2" value="&lt;b&gt;GophKeeper&lt;/b&gt; - общая концепция" style="text;html=1;strokeColor=none;fillColor=none;align=center;verticalAlign=middle;whiteSpace=wrap;rounded=0;fontSize=31;" parent="1" vertex="1"><mxGeometry x="161" y="30" width="550" height="99" as="geometry"/></mxCell><mxCell id="Netjsd_cc94yPRu-f9Rg-3" value="Server" style="rounded=0;whiteSpace=wrap;html=1;" parent="1" vertex="1"><mxGeometry x="404" y="162" width="120" height="60" as="geometry"/></mxCell><mxCell id="Netjsd_cc94yPRu-f9Rg-4" value="" style="endArrow=classic;startArrow=classic;html=1;rounded=0;entryX=0.5;entryY=1;entryDx=0;entryDy=0;exitX=0.5;exitY=0;exitDx=0;exitDy=0;" parent="1" source="Netjsd_cc94yPRu-f9Rg-1" target="Netjsd_cc94yPRu-f9Rg-3" edge="1"><mxGeometry width="50" height="50" relative="1" as="geometry"><mxPoint x="428" y="363" as="sourcePoint"/><mxPoint x="478" y="313" as="targetPoint"/></mxGeometry></mxCell><mxCell id="Netjsd_cc94yPRu-f9Rg-6" value="&lt;font style=&quot;font-size: 10px;&quot;&gt;- Авторизация&lt;br&gt;- Регистрация&lt;br&gt;- Синхронизация (и передача приват. данных)&lt;/font&gt;" style="text;strokeColor=none;fillColor=none;align=left;verticalAlign=middle;spacingLeft=4;spacingRight=4;overflow=hidden;points=[[0,0.5],[1,0.5]];portConstraint=eastwest;rotatable=0;whiteSpace=wrap;html=1;" parent="1" vertex="1"><mxGeometry x="379.5" y="285" width="173" height="88" as="geometry"/></mxCell><mxCell id="Netjsd_cc94yPRu-f9Rg-7" value="Keeper" style="rounded=0;whiteSpace=wrap;html=1;" parent="1" vertex="1"><mxGeometry x="556" y="299" width="120" height="60" as="geometry"/></mxCell><mxCell id="Netjsd_cc94yPRu-f9Rg-8" value="" style="endArrow=classic;startArrow=classic;html=1;rounded=0;entryX=0.5;entryY=1;entryDx=0;entryDy=0;exitX=0.5;exitY=0;exitDx=0;exitDy=0;" parent="1" source="Netjsd_cc94yPRu-f9Rg-7" target="Netjsd_cc94yPRu-f9Rg-3" edge="1"><mxGeometry width="50" height="50" relative="1" as="geometry"><mxPoint x="426" y="313" as="sourcePoint"/><mxPoint x="546" y="242" as="targetPoint"/></mxGeometry></mxCell><mxCell id="Netjsd_cc94yPRu-f9Rg-9" value="PostgreSQL" style="shape=cylinder3;whiteSpace=wrap;html=1;boundedLbl=1;backgroundOutline=1;size=15;" parent="1" vertex="1"><mxGeometry x="62" y="147.5" width="87" height="89" as="geometry"/></mxCell><mxCell id="Netjsd_cc94yPRu-f9Rg-10" value="S3" style="shape=cylinder3;whiteSpace=wrap;html=1;boundedLbl=1;backgroundOutline=1;size=15;" parent="1" vertex="1"><mxGeometry x="727" y="147.5" width="87" height="89" as="geometry"/></mxCell><mxCell id="Netjsd_cc94yPRu-f9Rg-11" value="" style="endArrow=classic;startArrow=classic;html=1;rounded=0;exitX=1;exitY=0.5;exitDx=0;exitDy=0;exitPerimeter=0;entryX=0;entryY=0.5;entryDx=0;entryDy=0;" parent="1" source="Netjsd_cc94yPRu-f9Rg-9" target="Netjsd_cc94yPRu-f9Rg-3" edge="1"><mxGeometry width="50" height="50" relative="1" as="geometry"><mxPoint x="390" y="184" as="sourcePoint"/><mxPoint x="440" y="134" as="targetPoint"/></mxGeometry></mxCell><mxCell id="Netjsd_cc94yPRu-f9Rg-12" value="" style="endArrow=classic;startArrow=classic;html=1;rounded=0;exitX=1;exitY=0.5;exitDx=0;exitDy=0;entryX=0;entryY=0.5;entryDx=0;entryDy=0;entryPerimeter=0;" parent="1" source="Netjsd_cc94yPRu-f9Rg-3" target="Netjsd_cc94yPRu-f9Rg-10" edge="1"><mxGeometry width="50" height="50" relative="1" as="geometry"><mxPoint x="391" y="210" as="sourcePoint"/><mxPoint x="441" y="160" as="targetPoint"/></mxGeometry></mxCell><mxCell id="Netjsd_cc94yPRu-f9Rg-14" value="&lt;span style=&quot;font-size: 10px;&quot;&gt;- Данные аккаунта (логин/пароль)&lt;br&gt;- Метаданные данных&lt;br&gt;&lt;/span&gt;" style="text;strokeColor=none;fillColor=none;align=left;verticalAlign=middle;spacingLeft=4;spacingRight=4;overflow=hidden;points=[[0,0.5],[1,0.5]];portConstraint=eastwest;rotatable=0;whiteSpace=wrap;html=1;" parent="1" vertex="1"><mxGeometry x="178" y="114" width="173" height="88" as="geometry"/></mxCell><mxCell id="Netjsd_cc94yPRu-f9Rg-15" value="&lt;span style=&quot;font-size: 10px;&quot;&gt;- sensitive-data&lt;br&gt;&lt;/span&gt;" style="text;strokeColor=none;fillColor=none;align=left;verticalAlign=middle;spacingLeft=4;spacingRight=4;overflow=hidden;points=[[0,0.5],[1,0.5]];portConstraint=eastwest;rotatable=0;whiteSpace=wrap;html=1;" parent="1" vertex="1"><mxGeometry x="545" y="129" width="173" height="88" as="geometry"/></mxCell><mxCell id="2" value="&lt;h1&gt;Шифрование данных&lt;/h1&gt;&lt;div&gt;&lt;br&gt;&lt;/div&gt;&lt;div&gt;Ключ - пароль пользователя (+комбинация +соль)&lt;br&gt;&lt;br&gt;если пользователь забудет пароль - гг&lt;/div&gt;&lt;div&gt;&lt;br&gt;&lt;/div&gt;" style="text;html=1;strokeColor=none;fillColor=none;spacing=5;spacingTop=-20;whiteSpace=wrap;overflow=hidden;rounded=0;" parent="1" vertex="1"><mxGeometry x="59" y="425" width="301" height="120" as="geometry"/></mxCell><mxCell id="3" value="&lt;p style=&quot;line-height: 90%;&quot;&gt;&lt;/p&gt;&lt;h1 style=&quot;line-height: 70%;&quot;&gt;Хранимые данные&lt;/h1&gt;&lt;p style=&quot;line-height: 70%;&quot;&gt;- Логин/пароль&lt;/p&gt;&lt;p style=&quot;line-height: 70%;&quot;&gt;- Текст&lt;/p&gt;&lt;p style=&quot;line-height: 70%;&quot;&gt;- Бинарники (фото пр.)&lt;br&gt;&lt;/p&gt;&lt;p style=&quot;line-height: 70%;&quot;&gt;- Банковские карты&lt;/p&gt;&lt;p&gt;&lt;/p&gt;" style="text;html=1;strokeColor=none;fillColor=none;spacing=5;spacingTop=-20;whiteSpace=wrap;overflow=hidden;rounded=0;" parent="1" vertex="1"><mxGeometry x="606" y="709" width="298.5" height="168" as="geometry"/></mxCell><mxCell id="5" value="&lt;b&gt;Keeper &lt;/b&gt;- клиент" style="text;html=1;strokeColor=none;fillColor=none;align=center;verticalAlign=middle;whiteSpace=wrap;rounded=0;fontSize=31;" parent="1" vertex="1"><mxGeometry x="915" y="30" width="306" height="99" as="geometry"/></mxCell><mxCell id="7" value="Вход" style="swimlane;fontStyle=0;childLayout=stackLayout;horizontal=1;startSize=30;horizontalStack=0;resizeParent=1;resizeParentMax=0;resizeLast=0;collapsible=1;marginBottom=0;whiteSpace=wrap;html=1;" parent="1" vertex="1"><mxGeometry x="938" y="433" width="158" height="90" as="geometry"/></mxCell><mxCell id="8" value="login" style="text;strokeColor=none;fillColor=none;align=left;verticalAlign=middle;spacingLeft=4;spacingRight=4;overflow=hidden;points=[[0,0.5],[1,0.5]];portConstraint=eastwest;rotatable=0;whiteSpace=wrap;html=1;" parent="7" vertex="1"><mxGeometry y="30" width="158" height="30" as="geometry"/></mxCell><mxCell id="9" value="register" style="text;strokeColor=none;fillColor=none;align=left;verticalAlign=middle;spacingLeft=4;spacingRight=4;overflow=hidden;points=[[0,0.5],[1,0.5]];portConstraint=eastwest;rotatable=0;whiteSpace=wrap;html=1;" parent="7" vertex="1"><mxGeometry y="60" width="158" height="30" as="geometry"/></mxCell><mxCell id="11" value="Команды" style="text;html=1;strokeColor=none;fillColor=none;align=center;verticalAlign=middle;whiteSpace=wrap;rounded=0;fontSize=21;" parent="1" vertex="1"><mxGeometry x="865" y="359" width="106" height="30" as="geometry"/></mxCell><mxCell id="17" style="edgeStyle=orthogonalEdgeStyle;rounded=0;orthogonalLoop=1;jettySize=auto;html=1;fontSize=16;" parent="1" source="12" target="14" edge="1"><mxGeometry relative="1" as="geometry"/></mxCell><mxCell id="18" style="edgeStyle=orthogonalEdgeStyle;rounded=0;orthogonalLoop=1;jettySize=auto;html=1;fontSize=16;" parent="1" source="12" target="13" edge="1"><mxGeometry relative="1" as="geometry"/></mxCell><mxCell id="12" value="Состояния пользователя" style="rounded=0;whiteSpace=wrap;html=1;fontSize=16;" parent="1" vertex="1"><mxGeometry x="1046" y="147.5" width="204" height="61" as="geometry"/></mxCell><mxCell id="27" style="edgeStyle=orthogonalEdgeStyle;rounded=0;orthogonalLoop=1;jettySize=auto;html=1;fontSize=16;" parent="1" source="13" target="24" edge="1"><mxGeometry relative="1" as="geometry"/></mxCell><mxCell id="36" style="edgeStyle=orthogonalEdgeStyle;rounded=0;orthogonalLoop=1;jettySize=auto;html=1;fontSize=16;" parent="1" source="13" target="31" edge="1"><mxGeometry relative="1" as="geometry"/></mxCell><mxCell id="41" style="edgeStyle=orthogonalEdgeStyle;rounded=0;orthogonalLoop=1;jettySize=auto;html=1;fontSize=16;" parent="1" source="13" target="38" edge="1"><mxGeometry relative="1" as="geometry"/></mxCell><mxCell id="13" value="Авторизован" style="rounded=1;whiteSpace=wrap;html=1;fontSize=16;fillColor=#008a00;fontColor=#ffffff;strokeColor=#005700;" parent="1" vertex="1"><mxGeometry x="1248" y="263" width="120" height="60" as="geometry"/></mxCell><mxCell id="19" style="edgeStyle=orthogonalEdgeStyle;rounded=0;orthogonalLoop=1;jettySize=auto;html=1;fontSize=16;" parent="1" source="14" target="7" edge="1"><mxGeometry relative="1" as="geometry"/></mxCell><mxCell id="42" style="edgeStyle=orthogonalEdgeStyle;rounded=0;orthogonalLoop=1;jettySize=auto;html=1;fontSize=16;" parent="1" source="14" target="38" edge="1"><mxGeometry relative="1" as="geometry"><Array as="points"><mxPoint x="1161" y="293"/></Array></mxGeometry></mxCell><mxCell id="14" value="Неавторизован" style="rounded=1;whiteSpace=wrap;html=1;fontSize=16;fillColor=#76608a;fontColor=#ffffff;strokeColor=#432D57;" parent="1" vertex="1"><mxGeometry x="952" y="263" width="130" height="60" as="geometry"/></mxCell><mxCell id="24" value="Чувствительные данные" style="swimlane;fontStyle=0;childLayout=stackLayout;horizontal=1;startSize=30;horizontalStack=0;resizeParent=1;resizeParentMax=0;resizeLast=0;collapsible=1;marginBottom=0;whiteSpace=wrap;html=1;" parent="1" vertex="1"><mxGeometry x="1215" y="433" width="186" height="150" as="geometry"/></mxCell><mxCell id="25" value="set [type] [name]" style="text;strokeColor=none;fillColor=none;align=left;verticalAlign=middle;spacingLeft=4;spacingRight=4;overflow=hidden;points=[[0,0.5],[1,0.5]];portConstraint=eastwest;rotatable=0;whiteSpace=wrap;html=1;" parent="24" vertex="1"><mxGeometry y="30" width="186" height="30" as="geometry"/></mxCell><mxCell id="26" value="get [type] [name]" style="text;strokeColor=none;fillColor=none;align=left;verticalAlign=middle;spacingLeft=4;spacingRight=4;overflow=hidden;points=[[0,0.5],[1,0.5]];portConstraint=eastwest;rotatable=0;whiteSpace=wrap;html=1;" parent="24" vertex="1"><mxGeometry y="60" width="186" height="30" as="geometry"/></mxCell><mxCell id="30" value="delete [type] [name]" style="text;strokeColor=none;fillColor=none;align=left;verticalAlign=middle;spacingLeft=4;spacingRight=4;overflow=hidden;points=[[0,0.5],[1,0.5]];portConstraint=eastwest;rotatable=0;whiteSpace=wrap;html=1;" parent="24" vertex="1"><mxGeometry y="90" width="186" height="30" as="geometry"/></mxCell><mxCell id="28" value="list [type]" style="text;strokeColor=none;fillColor=none;align=left;verticalAlign=middle;spacingLeft=4;spacingRight=4;overflow=hidden;points=[[0,0.5],[1,0.5]];portConstraint=eastwest;rotatable=0;whiteSpace=wrap;html=1;" parent="24" vertex="1"><mxGeometry y="120" width="186" height="30" as="geometry"/></mxCell><mxCell id="31" value="Выход" style="swimlane;fontStyle=0;childLayout=stackLayout;horizontal=1;startSize=30;horizontalStack=0;resizeParent=1;resizeParentMax=0;resizeLast=0;collapsible=1;marginBottom=0;whiteSpace=wrap;html=1;" parent="1" vertex="1"><mxGeometry x="1440" y="433" width="186" height="60" as="geometry"/></mxCell><mxCell id="35" value="logout" style="text;strokeColor=none;fillColor=none;align=left;verticalAlign=middle;spacingLeft=4;spacingRight=4;overflow=hidden;points=[[0,0.5],[1,0.5]];portConstraint=eastwest;rotatable=0;whiteSpace=wrap;html=1;" parent="31" vertex="1"><mxGeometry y="30" width="186" height="30" as="geometry"/></mxCell><mxCell id="38" value="Завершение сеанса" style="swimlane;fontStyle=0;childLayout=stackLayout;horizontal=1;startSize=30;horizontalStack=0;resizeParent=1;resizeParentMax=0;resizeLast=0;collapsible=1;marginBottom=0;whiteSpace=wrap;html=1;" parent="1" vertex="1"><mxGeometry x="1082" y="637" width="158" height="60" as="geometry"/></mxCell><mxCell id="39" value="exit" style="text;strokeColor=none;fillColor=none;align=left;verticalAlign=middle;spacingLeft=4;spacingRight=4;overflow=hidden;points=[[0,0.5],[1,0.5]];portConstraint=eastwest;rotatable=0;whiteSpace=wrap;html=1;" parent="38" vertex="1"><mxGeometry y="30" width="158" height="30" as="geometry"/></mxCell><mxCell id="44" value="Secret" style="rounded=0;whiteSpace=wrap;html=1;fontSize=16;" parent="1" vertex="1"><mxGeometry x="267" y="709" width="120" height="60" as="geometry"/></mxCell><mxCell id="46" value="" style="endArrow=classic;html=1;rounded=0;fontSize=16;exitX=0.5;exitY=1;exitDx=0;exitDy=0;entryX=0.5;entryY=0;entryDx=0;entryDy=0;" parent="1" source="44" target="48" edge="1"><mxGeometry width="50" height="50" relative="1" as="geometry"><mxPoint x="318" y="652" as="sourcePoint"/><mxPoint x="167" y="798" as="targetPoint"/></mxGeometry></mxCell><mxCell id="48" value="Credentials" style="rounded=1;whiteSpace=wrap;html=1;fontSize=16;arcSize=50;" parent="1" vertex="1"><mxGeometry x="58" y="821" width="120" height="60" as="geometry"/></mxCell><mxCell id="49" value="Card" style="rounded=1;whiteSpace=wrap;html=1;fontSize=16;arcSize=50;" parent="1" vertex="1"><mxGeometry x="196" y="821" width="120" height="60" as="geometry"/></mxCell><mxCell id="50" value="" style="endArrow=classic;html=1;rounded=0;fontSize=16;exitX=0.5;exitY=1;exitDx=0;exitDy=0;" parent="1" source="44" target="49" edge="1"><mxGeometry width="50" height="50" relative="1" as="geometry"><mxPoint x="326" y="774" as="sourcePoint"/><mxPoint x="175" y="831" as="targetPoint"/></mxGeometry></mxCell><mxCell id="51" value="Blob" style="rounded=1;whiteSpace=wrap;html=1;fontSize=16;arcSize=50;" parent="1" vertex="1"><mxGeometry x="335" y="821" width="120" height="60" as="geometry"/></mxCell><mxCell id="52" value="" style="endArrow=classic;html=1;rounded=0;fontSize=16;exitX=0.5;exitY=1;exitDx=0;exitDy=0;entryX=0.5;entryY=0;entryDx=0;entryDy=0;" parent="1" source="44" target="51" edge="1"><mxGeometry width="50" height="50" relative="1" as="geometry"><mxPoint x="326" y="774" as="sourcePoint"/><mxPoint x="293.8965517241379" y="831" as="targetPoint"/></mxGeometry></mxCell><mxCell id="53" value="Text" style="rounded=1;whiteSpace=wrap;html=1;fontSize=16;arcSize=50;" parent="1" vertex="1"><mxGeometry x="477" y="821" width="120" height="60" as="geometry"/></mxCell><mxCell id="54" value="" style="endArrow=classic;html=1;rounded=0;fontSize=16;exitX=0.5;exitY=1;exitDx=0;exitDy=0;entryX=0.5;entryY=0;entryDx=0;entryDy=0;" parent="1" source="44" target="53" edge="1"><mxGeometry width="50" height="50" relative="1" as="geometry"><mxPoint x="326" y="774" as="sourcePoint"/><mxPoint x="405" y="831" as="targetPoint"/></mxGeometry></mxCell><mxCell id="55" value="&lt;b&gt;Server &lt;/b&gt;- сервер" style="text;html=1;strokeColor=none;fillColor=none;align=center;verticalAlign=middle;whiteSpace=wrap;rounded=0;fontSize=31;" parent="1" vertex="1"><mxGeometry x="-292" y="30" width="259" height="99" as="geometry"/></mxCell><mxCell id="56" value="Логин/пароль" style="text;html=1;strokeColor=none;fillColor=none;align=center;verticalAlign=middle;whiteSpace=wrap;rounded=0;" parent="1" vertex="1"><mxGeometry x="70" y="898" width="96" height="34" as="geometry"/></mxCell><mxCell id="57" value="Карты" style="text;html=1;strokeColor=none;fillColor=none;align=center;verticalAlign=middle;whiteSpace=wrap;rounded=0;" parent="1" vertex="1"><mxGeometry x="208" y="898" width="96" height="34" as="geometry"/></mxCell><mxCell id="58" value="Бинарники" style="text;html=1;strokeColor=none;fillColor=none;align=center;verticalAlign=middle;whiteSpace=wrap;rounded=0;" parent="1" vertex="1"><mxGeometry x="347" y="898" width="96" height="34" as="geometry"/></mxCell><mxCell id="59" value="Текст" style="text;html=1;strokeColor=none;fillColor=none;align=center;verticalAlign=middle;whiteSpace=wrap;rounded=0;" parent="1" vertex="1"><mxGeometry x="489" y="898" width="96" height="34" as="geometry"/></mxCell><mxCell id="61" value="Session" style="rounded=0;whiteSpace=wrap;html=1;" vertex="1" parent="1"><mxGeometry x="1173" y="784" width="120" height="60" as="geometry"/></mxCell><mxCell id="63" value="Login" style="rounded=1;whiteSpace=wrap;html=1;arcSize=50;" vertex="1" parent="1"><mxGeometry x="1064" y="885" width="120" height="60" as="geometry"/></mxCell><mxCell id="64" value="" style="endArrow=classic;html=1;rounded=0;exitX=0.533;exitY=0.994;exitDx=0;exitDy=0;exitPerimeter=0;entryX=0.5;entryY=0;entryDx=0;entryDy=0;" edge="1" parent="1" source="61" target="63"><mxGeometry width="50" height="50" relative="1" as="geometry"><mxPoint x="1147" y="821" as="sourcePoint"/><mxPoint x="1197" y="771" as="targetPoint"/></mxGeometry></mxCell><mxCell id="65" value="Secrets" style="rounded=1;whiteSpace=wrap;html=1;arcSize=50;" vertex="1" parent="1"><mxGeometry x="1279" y="885" width="120" height="60" as="geometry"/></mxCell><mxCell id="66" value="" style="endArrow=classic;html=1;rounded=0;exitX=0.5;exitY=1;exitDx=0;exitDy=0;entryX=0.5;entryY=0;entryDx=0;entryDy=0;" edge="1" parent="1" source="61" target="65"><mxGeometry width="50" height="50" relative="1" as="geometry"><mxPoint x="1246.9599999999996" y="853.6400000000001" as="sourcePoint"/><mxPoint x="1116" y="895" as="targetPoint"/></mxGeometry></mxCell></root></mxGraphModel></diagram></mxfile>